<?xml version="1.0" standalone="no"?>
<!DOCTYPE svg PUBLIC "-//W3C//DTD SVG 20010904//EN"
 "http://www.w3.org/TR/2001/REC-SVG-20010904/DTD/svg10.dtd">
<svg version="1.0" xmlns="http://www.w3.org/2000/svg"
 width="200.000000pt" height="200.000000pt" viewBox="0 0 200.000000 200.000000"
 preserveAspectRatio="xMidYMid meet">

<g transform="translate(0.000000,200.000000) scale(0.100000,-0.100000)"
fill="#000000" stroke="none">
<path d="M827 1985 c-211 -40 -383 -131 -532 -280 -130 -129 -215 -277 -263
-454 -22 -84 -25 -116 -25 -251 0 -135 3 -167 25 -251 48 -177 133 -325 263
-454 129 -130 277 -215 454 -263 84 -22 116 -25 251 -25 135 0 167 3 252 26
352 94 621 363 715 715 23 85 26 117 26 252 0 135 -3 167 -25 251 -48 177
-133 325 -263 454 -130 131 -279 216 -454 262 -123 31 -310 39 -424 18z m406
-169 c287 -85 495 -292 584 -583 23 -78 26 -104 26 -233 0 -129 -3 -155 -26
-233 -89 -291 -293 -495 -584 -584 -78 -23 -104 -26 -233 -26 -129 0 -155 3
-233 26 -291 89 -495 293 -584 584 -23 78 -26 104 -26 233 0 129 3 155 26 233
99 324 350 546 684 607 88 16 269 4 366 -24z"/>
<path d="M685 1526 c-60 -19 -113 -49 -183 -101 l-62 -47 0 -62 c0 -121 49
-220 136 -276 70 -44 99 -47 129 -13 l24 28 1 -297 0 -298 100 0 99 0 3 128 3
127 13 -105 c19 -154 18 -150 52 -150 34 0 34 0 51 145 6 55 13 102 15 104 2
2 4 -53 4 -122 l0 -127 100 0 100 0 0 298 1 297 24 -28 c30 -34 59 -31 129 13
87 56 136 155 136 276 l0 62 -62 48 c-145 109 -241 131 -355 80 -49 -22 -65
-26 -81 -17 -12 6 -39 11 -62 11 -23 0 -50 -5 -62 -11 -16 -9 -32 -6 -77 14
-72 32 -126 39 -176 23z m195 -221 c10 -12 10 -18 0 -30 -16 -19 -39 -19 -46
0 -6 15 11 45 26 45 4 0 13 -7 20 -15z m280 0 c15 -18 6 -45 -13 -45 -8 0 -20
7 -27 15 -10 12 -10 18 0 30 16 19 24 19 40 0z m-270 -385 c3 -68 10 -124 18
-138 17 -30 9 -38 -22 -24 -43 19 -66 87 -66 191 l0 92 33 -3 32 -3 5 -115z
m292 102 c3 -10 2 -56 -2 -103 -7 -93 -33 -152 -71 -164 -29 -10 -33 -1 -15
34 12 22 16 59 16 134 0 57 3 107 7 110 14 15 61 7 65 -11z"/>
</g>
</svg>
